<?xml version="1.0" standalone="no"?><!DOCTYPE svg PUBLIC "-//W3C//DTD SVG 1.1//EN" "http://www.w3.org/Graphics/SVG/1.1/DTD/svg11.dtd"><svg class="icon" width="200px" height="200.00px" viewBox="0 0 1024 1024" version="1.1" xmlns="http://www.w3.org/2000/svg"><path fill="#333333" d="M908.463327 147.752498c0 16.859603-13.667703 30.528209-30.528209 30.528209H146.06428c-16.860506 0-30.528209-13.668305-30.528209-30.528209 0-16.860205 13.667703-30.528209 30.528209-30.528209h731.871139c16.860205-0.000301 30.527908 13.668004 30.527908 30.528209z"  /><path fill="#333333" d="M378.958601 433.856395c-13.178216 10.516142-28.081377 13.753197-33.286615 7.230016L119.713568 157.924855c-5.205239-6.522579 1.258638-20.336586 14.436853-30.852728 13.178216-10.515841 28.081979-13.752595 33.286916-7.229715l225.958418 283.161556c5.205239 6.523181-1.258638 20.335984-14.437154 30.852427zM647.418692 433.856395c13.178517 10.516142 28.081678 13.753197 33.286314 7.230016l225.958719-283.161556c5.204637-6.522579-1.258337-20.336586-14.436853-30.852728-13.178517-10.515841-28.081678-13.752595-33.286917-7.229715l-225.958117 283.161556c-5.205239 6.523181 1.258939 20.335984 14.436854 30.852427z"  /><path fill="#333333" d="M661.709241 907.526499c-16.859904 0-30.527607-8.959176-30.527607-20.010563V407.810633c0-11.051085 13.667703-20.010261 30.527607-20.010261 16.861108 0 30.528209 8.959176 30.528209 20.010261v479.705605c0 11.051085-13.668305 20.010261-30.528209 20.010261zM363.251971 654.744439c-16.859603 0-30.528209-4.48004-30.528209-10.004679v-239.852803c0-5.525543 13.668606-10.00498 30.528209-10.00498 16.860506 0 30.528209 4.479437 30.528209 10.00498v239.852803c0 5.524941-13.668606 10.004679-30.528209 10.004679z"  /><path fill="#333333" d="M533.538929 804.625873c-11.921686 11.921987-24.754612 18.419579-28.661174 14.512113l-169.6027-169.6027c-3.907165-3.907165 2.590126-16.739188 14.512113-28.660873 11.922288-11.922288 24.754009-18.41988 28.661475-14.511511l169.601797 169.602098c3.907767 3.907165-2.589825 16.738887-14.511511 28.660873z"  /></svg>