<?xml version="1.0" standalone="no"?><!DOCTYPE svg PUBLIC "-//W3C//DTD SVG 1.1//EN" "http://www.w3.org/Graphics/SVG/1.1/DTD/svg11.dtd"><svg t="1649431259778" class="icon" viewBox="0 0 1024 1024" version="1.1" xmlns="http://www.w3.org/2000/svg" p-id="9270" xmlns:xlink="http://www.w3.org/1999/xlink" width="200" height="200"><defs><style type="text/css">@font-face { font-family: feedback-iconfont; src: url("//at.alicdn.com/t/font_1031158_u69w8yhxdu.woff2?t=1630033759944") format("woff2"), url("//at.alicdn.com/t/font_1031158_u69w8yhxdu.woff?t=1630033759944") format("woff"), url("//at.alicdn.com/t/font_1031158_u69w8yhxdu.ttf?t=1630033759944") format("truetype"); }
</style></defs><path d="M266.24 512a40.96 40.96 0 1 1 40.96 40.96 40.96 40.96 0 0 1-40.96-40.96z m204.8 0a40.96 40.96 0 1 1 40.96 40.96 40.96 40.96 0 0 1-40.96-40.96z m204.8 0a40.96 40.96 0 1 1 40.96 40.96 40.96 40.96 0 0 1-40.96-40.96z m307.2 184.32a40.96 40.96 0 0 1-40.96-40.96V286.72a122.88 122.88 0 0 0-122.88-122.88H204.8a122.88 122.88 0 0 0-122.88 122.88v450.56a122.88 122.88 0 0 0 122.88 122.88h737.28a40.96 40.96 0 0 1 0 81.92H204.8A204.8 204.8 0 0 1 0 737.28V286.72A204.8 204.8 0 0 1 204.8 81.92h614.4a204.8 204.8 0 0 1 204.8 204.8v368.64a40.96 40.96 0 0 1-40.96 40.96z" p-id="9271"></path></svg>